<?xml version="1.0" encoding="UTF-8" standalone="no"?>
<svg
   xmlns:dc="http://purl.org/dc/elements/1.1/"
   xmlns:cc="http://creativecommons.org/ns#"
   xmlns:rdf="http://www.w3.org/1999/02/22-rdf-syntax-ns#"
   xmlns:svg="http://www.w3.org/2000/svg"
   xmlns="http://www.w3.org/2000/svg"
   xmlns:sodipodi="http://sodipodi.sourceforge.net/DTD/sodipodi-0.dtd"
   xmlns:inkscape="http://www.inkscape.org/namespaces/inkscape"
   version="1.0"
   width="480"
   height="58"
   viewBox="0 0 360 43.499998"
   preserveAspectRatio="xMidYMid meet"
   id="svg14"
   sodipodi:docname="logo.svg"
   inkscape:version="1.0 (4035a4fb49, 2020-05-01)">
  <metadata
     id="metadata20">
    <rdf:RDF>
      <cc:Work
         rdf:about="">
        <dc:format>image/svg+xml</dc:format>
        <dc:type
           rdf:resource="http://purl.org/dc/dcmitype/StillImage" />
        <dc:title></dc:title>
      </cc:Work>
    </rdf:RDF>
  </metadata>
  <defs
     id="defs18" />
  <sodipodi:namedview
     inkscape:document-rotation="0"
     pagecolor="#ffffff"
     bordercolor="#666666"
     borderopacity="1"
     objecttolerance="10"
     gridtolerance="10"
     guidetolerance="10"
     inkscape:pageopacity="0"
     inkscape:pageshadow="2"
     inkscape:window-width="1366"
     inkscape:window-height="705"
     id="namedview16"
     showgrid="false"
     inkscape:zoom="1.7392241"
     inkscape:cx="289.8481"
     inkscape:cy="30.604338"
     inkscape:window-x="-8"
     inkscape:window-y="-8"
     inkscape:window-maximized="1"
     inkscape:current-layer="g12"
     inkscape:snap-bbox="true"
     inkscape:bbox-paths="false"
     units="px"
     showguides="true"
     inkscape:guide-bbox="true">
    <sodipodi:guide
       position="73.739777,26.045538"
       orientation="0,-1"
       id="guide883" />
    <sodipodi:guide
       position="175.50929,70.893122"
       orientation="1,0"
       id="guide885" />
  </sodipodi:namedview>
  <g
     transform="matrix(0.1,0,0,-0.1,0,116)"
     fill="#000000"
     stroke="none"
     id="g12">
    <path
       d="M 291.73407,1145.02 C 218.29669,1136.4246 129.4415,1105.9836 81.970937,1071.961 23.545613,1030.4176 -7.2899736,968.46071 5.6934312,919.03846 21.516956,859.58846 71.016192,812.31499 153.37966,778.2924 c 44.63046,-18.62288 83.9864,-28.65059 140.7888,-35.81324 101.02712,-12.53464 200.83705,1.0744 291.31517,39.75272 39.76168,17.19036 50.31066,23.63673 79.11761,49.06412 49.90494,44.40842 69.78579,88.81679 60.04829,133.58338 -21.09812,92.39822 -135.51431,162.95072 -292.93812,180.14062 -39.76168,4.6558 -99.40419,4.2977 -139.97734,0 z m 164.32123,-8.9532 c 212.60328,-32.2319 322.55647,-164.74103 229.23827,-276.83645 -41.7904,-50.13856 -126.58823,-90.96566 -225.18096,-108.156 -34.08144,-6.08827 -155.80086,-6.08827 -190.69377,0 -94.94115,16.47406 -178.521813,55.51051 -221.529343,103.85841 -25.966809,29.00875 -35.298632,53.00358 -35.704364,90.24938 -0.405731,28.29246 0.811464,32.2319 15.012062,57.65926 35.704363,64.4639 128.211125,114.6024 244.250305,133.2254 45.03619,7.1626 137.54295,7.1626 184.6078,0 z"
       id="path2"
       style="fill:#fed777;fill-opacity:1;stroke-width:0.381189" />
    <path
       d="m 539.63596,1044.3848 c -38.54448,-76.28223 -68.56861,-133.94156 -71.00299,-136.44846 -1.62293,-1.43249 -17.44645,25.42742 -35.29863,59.80813 l -32.05279,62.67313 -17.44645,0.3582 c -9.73755,0 -17.04072,-1.4326 -16.22925,-3.2232 6.4917,-14.6835 98.99847,-189.45206 99.80993,-188.73581 0.40573,0.71626 24.34387,46.19909 52.74508,100.99336 34.8929,67.32885 54.36802,100.27705 58.83104,100.99335 6.49173,1.0744 6.89745,-6.8046 6.89745,-100.99335 V 837.38427 h 14.20057 14.20063 v 112.81171 112.81182 h -32.4585 -32.45853 z"
       id="path4"
       style="fill:#550000;fill-opacity:1;stroke-width:0.381189" />
    <path
       d="m 165.95733,1020.7481 c -25.9668,-11.1021 -49.49922,-31.15755 -62.88836,-54.07806 -10.549014,-18.62287 -10.143283,-21.84606 2.02866,-21.84606 8.11463,0 11.76621,3.22319 18.25791,15.75784 14.2006,26.50179 47.06485,47.27348 81.14629,51.21298 13.79486,1.7906 16.22924,3.2231 16.22924,10.3858 0,7.5208 -2.02866,8.5952 -15.01205,8.5952 -8.52036,0 -26.37255,-4.6558 -39.76169,-10.0277 z"
       id="path6"
       style="fill:#550000;fill-opacity:1;stroke-width:0.381189" />
    <path
       d="m 263.73861,938.73575 c -26.37255,-50.85485 -48.68777,-94.54698 -49.90496,-96.69577 -1.62293,-3.58133 9.73754,-4.65571 49.09349,-4.65571 h 51.12216 v 12.53461 12.53466 h -26.37254 c -14.60633,0 -26.37254,1.43252 -26.37254,2.86504 0,7.16265 47.47057,94.18884 50.71643,93.47254 2.43438,-0.71623 17.85218,-27.9343 34.8929,-60.52435 l 30.42986,-59.09184 17.85217,-1.07439 c 12.9834,-1.07442 16.63499,0 15.01206,3.5813 -2.43438,6.08825 -96.9698,186.94516 -98.18699,188.37766 -0.40574,0.3581 -22.31524,-40.8271 -48.28204,-91.32375 z"
       id="path8"
       style="fill:#fed777;fill-opacity:1;stroke-width:0.381189" />
    <path
       d="m 182.18659,917.24779 c -10.54902,-24.71114 -40.16741,-49.06412 -68.56861,-56.94305 -19.475102,-5.37198 -22.720953,-7.52076 -22.720953,-15.04156 0,-8.23706 1.217192,-8.59517 15.012053,-6.08825 39.76169,6.44638 83.58068,39.39456 96.15835,71.98461 6.89744,18.26471 5.68025,22.92048 -5.2745,22.92048 -5.27451,0 -9.73756,-5.37198 -14.60634,-16.83223 z"
       id="path10"
       style="fill:#550000;fill-opacity:1;stroke-width:0.381189" />
    <g
       id="g24"
       stroke="none"
       fill="#000000"
       transform="matrix(0.70769935,0,0,0.75190824,807.29703,789.49344)"
       style="fill:#ffffff;fill-opacity:1">
      <path
         style="opacity:1;fill:#ffffff;fill-opacity:1"
         id="path2-5"
         d="m 1575,349 c -125,-38 -141,-212 -25,-272 45,-22 106,-19 104,6 -1,9 -2,26 -3,37 -1,14 -8,20 -24,20 -38,0 -67,27 -67,64 0,39 23,63 65,68 27,3 30,6 28,37 -1,18 -3,35 -5,36 -11,10 -48,12 -73,4 z" />
      <path
         style="opacity:1;fill:#ffffff;fill-opacity:1"
         sodipodi:nodetypes="cscccccccccccsssc"
         id="path4-8"
         d="m 1760,350 c -12,-7 -15,-35 -15,-147 V 65 h 95 95 l 3,41 c 3.6775,39.32253 0.7137,37.89365 -31.0445,34.65185 -17,-2 -38.9555,-3.69631 -53.9555,1.30369 -25,7 -21,13.04446 27,18.04446 l 55,5 v 40 40 l -45,3 c -69,5 -74,22 -7,22 56,0 57,0 57,29 0,57 -6,61 -89,61 -42,0 -83,-5 -91,-10 z" />
      <path
         style="opacity:1;fill:#ffffff;fill-opacity:1"
         id="path6-6"
         d="m 3272,352 -43,-3 3,-142 3,-142 h 45 45 l 3,139 c 1,77 -1,142 -5,145 -4,3 -27,5 -51,3 z" />
      <path
         style="opacity:1;fill:#ffffff;fill-opacity:1"
         id="path8-8"
         d="M 86,329 C 55,305 51,254 77,210 c 18,-31 38,-40 96,-40 20,0 37,-4 37,-10 0,-6 -32,-10 -75,-10 H 60 V 105 60 h 74 c 41,0 86,4 99,9 39,15 67,51 67,85 0,74 -25,96 -105,96 -24,0 -47,5 -50,10 -4,6 22,10 69,10 h 76 v 40 40 h -89 c -74,0 -92,-3 -115,-21 z" />
      <path
         style="opacity:1;fill:#ffffff;fill-opacity:1"
         id="path10-9"
         d="M 527,343 C 497,291 390,79 390,71 c 0,-6 20,-11 45,-11 44,0 46,2 67,45 12,25 25,45 29,45 4,0 18,-19 31,-42 22,-40 26,-43 71,-46 26,-2 47,-1 47,3 0,8 -39,87 -95,190 -56,105 -52,99 -58,88 z" />
      <path
         style="opacity:1;fill:#ffffff;fill-opacity:1"
         id="path12"
         d="M 865,274 C 794,123 770,70 770,65 c 0,-3 20,-5 44,-5 42,0 46,2 70,45 15,25 30,45 34,45 4,0 18,-18 32,-40 14,-22 27,-40 31,-40 3,0 15,18 28,40 12,22 26,40 31,40 4,0 16,-17 25,-38 10,-20 23,-40 29,-44 16,-11 86,-10 86,1 0,6 -17,47 -39,93 -21,46 -48,104 -59,131 -12,26 -25,47 -29,47 -5,0 -22,-22 -38,-50 -16,-27 -32,-50 -36,-50 -4,0 -23,26 -42,57 l -35,56 z" />
      <path
         style="opacity:1;fill:#ffffff;fill-opacity:1"
         sodipodi:nodetypes="ccccsssssccccsccccsc"
         id="path14"
         d="M 2040,205 V 60 h 40 40 v 50 c 0,28 4,50 10,50 5,0 21,-22 35,-50 23,-46 28,-50 60,-50 19,0 35,2 35,5 0,2 -14,32 -31,66 l -31,61 26,27 c 36,38 35,83 -3,110 -23,17 -44,21 -105,21 h -76 z m 123,60 c 1,-5 -5.0467,-18.14967 -14.0467,-20.14967 C 2137.9533,242.85033 2130,255 2130,265 c 0,17 30,18 33,0 z" />
      <path
         style="opacity:1;fill:#ffffff;fill-opacity:1"
         id="path16"
         d="M 2474,312 C 2418,213 2350,81 2350,71 c 0,-16 76,-13 93,3 8,8 20,28 27,45 7,17 16,31 20,31 5,0 20,-20 34,-45 26,-44 28,-45 75,-45 h 49 l -30,58 c -91,174 -109,208 -116,219 -5,8 -14,-1 -28,-25 z" />
      <path
         style="opacity:1;fill:#ffffff;fill-opacity:1"
         id="path18"
         d="M 2847,318 C 2777,169 2730,67 2730,63 c 0,-2 21,-3 47,-1 45,3 49,6 71,46 13,23 27,42 30,42 4,0 18,-18 32,-40 14,-22 28,-40 32,-40 4,0 17,18 28,40 11,22 25,40 30,40 5,0 18,-20 29,-45 19,-44 21,-45 65,-45 25,0 46,4 46,9 0,10 -48,121 -96,219 l -32,67 -18,-34 c -11,-18 -28,-45 -40,-59 l -21,-25 -32,56 c -18,32 -34,57 -36,57 -1,0 -10,-15 -18,-32 z" />
      <path
         style="opacity:1;fill:#ffffff;fill-opacity:1"
         id="path20"
         d="m 3484,331 c -42,-26 -76,-97 -68,-142 15,-76 58,-117 134,-126 l 50,-6 v 42 c 0,36 -3,41 -24,41 -33,0 -76,37 -76,65 0,32 37,65 72,65 26,0 28,3 28,40 v 40 h -42 c -25,0 -56,-8 -74,-19 z" />
      <path
         style="opacity:1;fill:#ffffff;fill-opacity:1"
         id="path22"
         d="m 3716,329 c -20,-16 -26,-29 -26,-61 0,-59 42,-98 105,-98 25,0 45,-4 45,-10 0,-6 -32,-10 -75,-10 h -75 V 105 60 h 75 c 125,0 169,30 163,112 -4,52 -35,77 -109,88 l -54,8 78,1 77,1 v 40 40 h -89 c -74,0 -92,-3 -115,-21 z" />
    </g>
  </g>
</svg>
