<?xml version="1.0" encoding="UTF-8" standalone="no"?>
<svg
   xmlns:dc="http://purl.org/dc/elements/1.1/"
   xmlns:cc="http://creativecommons.org/ns#"
   xmlns:rdf="http://www.w3.org/1999/02/22-rdf-syntax-ns#"
   xmlns:svg="http://www.w3.org/2000/svg"
   xmlns="http://www.w3.org/2000/svg"
   xmlns:sodipodi="http://sodipodi.sourceforge.net/DTD/sodipodi-0.dtd"
   xmlns:inkscape="http://www.inkscape.org/namespaces/inkscape"
   version="1.0"
   width="625"
   height="185"
   viewBox="0 0 343.75 101.75"
   preserveAspectRatio="xMidYMid meet"
   id="svg14"
   sodipodi:docname="logo-f.svg"
   inkscape:version="1.0 (4035a4fb49, 2020-05-01)">
  <metadata
     id="metadata20">
    <rdf:RDF>
      <cc:Work
         rdf:about="">
        <dc:format>image/svg+xml</dc:format>
        <dc:type
           rdf:resource="http://purl.org/dc/dcmitype/StillImage" />
        <dc:title></dc:title>
      </cc:Work>
    </rdf:RDF>
  </metadata>
  <defs
     id="defs18" />
  <sodipodi:namedview
     scale-x="0.65"
     inkscape:document-rotation="0"
     pagecolor="#ffffff"
     bordercolor="#666666"
     borderopacity="1"
     objecttolerance="10"
     gridtolerance="10"
     guidetolerance="10"
     inkscape:pageopacity="0"
     inkscape:pageshadow="2"
     inkscape:window-width="1366"
     inkscape:window-height="705"
     id="namedview16"
     showgrid="false"
     inkscape:zoom="1.2298172"
     inkscape:cx="386.06806"
     inkscape:cy="125.4076"
     inkscape:window-x="-8"
     inkscape:window-y="-8"
     inkscape:window-maximized="1"
     inkscape:current-layer="g12"
     inkscape:snap-bbox="true"
     inkscape:bbox-paths="false"
     units="px"
     showguides="true"
     inkscape:guide-bbox="true">
    <sodipodi:guide
       position="225.56199,41.929723"
       orientation="0,-1"
       id="guide883" />
    <sodipodi:guide
       position="172.18007,102.2639"
       orientation="1,0"
       id="guide885" />
  </sodipodi:namedview>
  <g
     transform="matrix(0.1,0,0,-0.1,-58.4,113.8)"
     fill="#000000"
     stroke="none"
     id="g12">
    <path
       d="m 2151.5968,1117.6878 c -100.6489,-11.7803 -222.4285,-53.501 -287.4889,-100.1304 -80.0743,-56.93687 -122.3357,-141.85131 -104.5414,-209.58651 21.6868,-81.47864 89.5275,-146.26885 202.41,-192.89819 61.1678,-25.52341 115.1067,-39.2668 192.9567,-49.0835 138.4618,-17.17924 275.2554,1.47251 399.2593,54.48271 54.495,23.56009 68.9528,32.3951 108.4339,67.24437 68.3968,60.86355 95.6443,121.72703 82.2986,183.08145 -28.9158,126.63547 -185.7278,223.33057 -401.4836,246.89007 -54.495,6.3809 -136.2374,5.8902 -191.8446,0 z m 225.2089,-12.2708 c 291.3815,-44.1751 442.0768,-225.78422 314.1804,-379.41555 -57.2754,-68.71694 -173.4943,-124.67213 -308.6197,-148.23219 -46.71,-8.34422 -213.5314,-8.34422 -261.3535,0 -130.1207,22.57836 -244.6714,76.07941 -303.615,142.34217 -35.5885,39.75766 -48.3782,72.64356 -48.9343,123.69043 -0.556,38.77597 1.1122,44.17514 20.5747,79.02442 48.9343,88.35042 175.7185,157.06722 334.7549,182.59072 61.724,9.8167 188.5082,9.8167 253.0125,0 z"
       id="path2"
       style="fill:#fed777;fill-opacity:1;stroke-width:0.522435" />
    <path
       d="m 2491.3564,979.7632 c -52.8268,-104.54795 -93.976,-183.57241 -97.3125,-187.00821 -2.2243,-1.96329 -23.911,34.84931 -48.3782,81.96946 l -43.9296,85.89608 -23.9111,0.49087 c -13.3457,0 -23.355,-1.96337 -22.2428,-4.4175 8.8971,-20.12424 135.6814,-259.65172 136.7935,-258.67007 0.5561,0.98167 33.3643,63.31773 72.2893,138.4155 47.8221,92.27697 74.5136,137.43387 80.6303,138.41547 8.8972,1.4725 9.4533,-9.3259 9.4533,-138.41547 V 696.06051 h 19.4624 19.4626 v 154.61303 154.61316 h -44.4857 -44.4858 z"
       id="path4"
       style="fill:#550000;fill-opacity:1;stroke-width:0.522435" />
    <path
       d="m 1979.2147,947.36803 c -35.5886,-15.21588 -67.8407,-42.70263 -86.1911,-74.11612 -14.4578,-25.5234 -13.9018,-29.94092 2.7804,-29.94092 11.1214,0 16.1261,4.41752 25.0232,21.59676 19.4625,36.32178 64.5043,64.79023 111.2143,70.18941 18.9064,2.45412 22.2428,4.41749 22.2428,14.23424 0,10.3075 -2.7803,11.78 -20.5746,11.78 -11.6775,0 -36.1447,-6.38087 -54.495,-13.74337 z"
       id="path6"
       style="fill:#550000;fill-opacity:1;stroke-width:0.522435" />
    <path
       d="m 2113.2279,834.96683 c -36.1447,-69.69864 -66.7286,-129.58048 -68.3968,-132.52548 -2.2243,-4.90836 13.3457,-6.38084 67.2846,-6.38084 h 70.065 v 17.17919 17.17926 h -36.1446 c -20.0186,0 -36.1446,1.96332 -36.1446,3.92665 0,9.8167 65.0603,129.08963 69.5089,128.10792 3.3364,-0.98163 24.4671,-38.28509 47.8221,-82.95109 l 41.7054,-80.98776 24.4671,-1.4725 c 17.7943,-1.47253 22.7989,0 20.5747,4.90832 -3.3365,8.34419 -132.9011,256.2159 -134.5693,258.17928 -0.5561,0.49075 -30.5839,-55.95524 -66.1725,-125.16295 z"
       id="path8"
       style="fill:#fed777;fill-opacity:1;stroke-width:0.522435" />
    <path
       d="m 2001.4575,805.51671 c -14.4578,-33.86763 -55.051,-67.24437 -93.976,-78.04277 -26.6914,-7.36251 -31.14,-10.30751 -31.14,-20.61506 0,-11.28923 1.6682,-11.78004 20.5746,-8.3442 54.495,8.83502 114.5507,53.99185 131.7889,98.65783 9.4533,25.03253 7.785,31.41345 -7.2289,31.41345 -7.2289,0 -13.3457,-7.36252 -20.0186,-23.06925 z"
       id="path10"
       style="fill:#550000;fill-opacity:1;stroke-width:0.522435" />
    <g
       id="g24"
       stroke="none"
       fill="#000000"
       transform="matrix(0.88237915,0,0,0.93750002,1037.4071,668.68412)"
       style="fill:#ffffff;fill-opacity:1">
      <path
         style="opacity:1;fill:#ffffff;fill-opacity:1"
         id="path2-5"
         d="m 1015.3687,-267.36679 c -125.00003,-38 -141.00003,-212 -25.00003,-272 45.00003,-22 106.00003,-19 104.00003,6 -1,9 -2,26 -3,37 -1,14 -8,20 -24,20 -38,0 -67,27 -67,64 0,39 23,63 65,68 27,3 30,6 28,37 -1,18 -3,35 -5,36 -11,10 -48,12 -73,4 z" />
      <path
         style="opacity:1;fill:#ffffff;fill-opacity:1"
         sodipodi:nodetypes="cscccccccccccsssc"
         id="path4-8"
         d="m 1200.3687,-266.36679 c -12,-7 -15,-35 -15,-147 v -138 h 95 95 l 3,41 c 3.6775,39.32253 0.7137,37.89365 -31.0445,34.65185 -17,-2 -38.9555,-3.69631 -53.9555,1.30369 -25,7 -21,13.04446 27,18.04446 l 55,5 v 40 40 l -45,3 c -69,5 -74,22 -7,22 56,0 57,0 57,29 0,57 -6,61 -89,61 -42,0 -83,-5 -91,-10 z" />
      <path
         style="opacity:1;fill:#ffffff;fill-opacity:1"
         id="path6-6"
         d="m 2712.3687,-264.36679 -43,-3 3,-142 3,-142 h 45 45 l 3,139 c 1,77 -1,142 -5,145 -4,3 -27,5 -51,3 z" />
      <path
         style="opacity:1;fill:#ffffff;fill-opacity:1"
         id="path8-8"
         d="m -473.63133,-287.36679 c -31,-24 -35,-75 -9,-119 18,-31 38,-40 96,-40 20,0 37,-4 37,-10 0,-6 -32,-10 -75,-10 h -75 v -45 -45 h 74 c 41,0 86,4 99,9 39,15 67,51 67,85 0,74 -25,96 -105,96 -24,0 -47,5 -50,10 -4,6 22,10 69,10 h 76 v 40 40 h -89 c -74,0 -92,-3 -115,-21 z" />
      <path
         style="opacity:1;fill:#ffffff;fill-opacity:1"
         id="path10-9"
         d="m -32.63133,-273.36679 c -30,-52 -137,-264 -137,-272 0,-6 20,-11 45,-11 44,0 46,2 67,45 12,25 25,45 29,45 4,0 18,-19 31,-42 22,-40 26,-43 71,-46 26,-2 47,-1 47,3 0,8 -39,87 -95,190 -56,105 -52,99 -58,88 z" />
      <path
         style="opacity:1;fill:#ffffff;fill-opacity:1"
         id="path12"
         d="m 305.36867,-342.36679 c -71,-151 -95,-204 -95,-209 0,-3 20,-5 44,-5 42,0 46,2 70,45 15,25 30,45 34,45 4,0 18,-18 32,-40 14,-22 27,-40 31,-40 3,0 15,18 28,40 12,22 26,40 31,40 4,0 16,-17 25,-38 10,-20 23,-40 29,-44 16,-11 86,-10 86,1 0,6 -17,47 -39,93 -21,46 -48,104 -59,131 -12,26 -25,47 -29,47 -5,0 -22,-22 -38,-50 -16,-27 -32,-50 -36,-50 -4,0 -23,26 -42,57 l -35,56 z" />
      <path
         style="opacity:1;fill:#ffffff;fill-opacity:1"
         sodipodi:nodetypes="ccccsssssccccsccccsc"
         id="path14"
         d="m 1480.3687,-411.36679 v -145 h 40 40 v 50 c 0,28 4,50 10,50 5,0 21,-22 35,-50 23,-46 28,-50 60,-50 19,0 35,2 35,5 0,2 -14,32 -31,66 l -31,61 26,27 c 36,38 35,83 -3,110 -23,17 -44,21 -105,21 h -76 z m 123,60 c 1,-5 -5.0467,-18.14967 -14.0467,-20.14967 -11,-2 -18.9533,10.14967 -18.9533,20.14967 0,17 30,18 33,0 z" />
      <path
         style="opacity:1;fill:#ffffff;fill-opacity:1"
         id="path16"
         d="m 1914.3687,-304.36679 c -56,-99 -124,-231 -124,-241 0,-16 76,-13 93,3 8,8 20,28 27,45 7,17 16,31 20,31 5,0 20,-20 34,-45 26,-44 28,-45 75,-45 h 49 l -30,58 c -91,174 -109,208 -116,219 -5,8 -14,-1 -28,-25 z" />
      <path
         style="opacity:1;fill:#ffffff;fill-opacity:1"
         id="path18"
         d="m 2287.3687,-298.36679 c -70,-149 -117,-251 -117,-255 0,-2 21,-3 47,-1 45,3 49,6 71,46 13,23 27,42 30,42 4,0 18,-18 32,-40 14,-22 28,-40 32,-40 4,0 17,18 28,40 11,22 25,40 30,40 5,0 18,-20 29,-45 19,-44 21,-45 65,-45 25,0 46,4 46,9 0,10 -48,121 -96,219 l -32,67 -18,-34 c -11,-18 -28,-45 -40,-59 l -21,-25 -32,56 c -18,32 -34,57 -36,57 -1,0 -10,-15 -18,-32 z" />
      <path
         style="opacity:1;fill:#ffffff;fill-opacity:1"
         id="path20"
         d="m 2924.3687,-285.36679 c -42,-26 -76,-97 -68,-142 15,-76 58,-117 134,-126 l 50,-6 v 42 c 0,36 -3,41 -24,41 -33,0 -76,37 -76,65 0,32 37,65 72,65 26,0 28,3 28,40 v 40 h -42 c -25,0 -56,-8 -74,-19 z" />
      <path
         style="opacity:1;fill:#ffffff;fill-opacity:1"
         id="path22"
         d="m 3156.3687,-287.36679 c -20,-16 -26,-29 -26,-61 0,-59 42,-98 105,-98 25,0 45,-4 45,-10 0,-6 -32,-10 -75,-10 h -75 v -45 -45 h 75 c 125,0 169,30 163,112 -4,52 -35,77 -109,88 l -54,8 78,1 77,1 v 40 40 h -89 c -74,0 -92,-3 -115,-21 z" />
    </g>
  </g>
</svg>
