<?xml version="1.0" encoding="UTF-8" standalone="no"?>
<svg
   xmlns:dc="http://purl.org/dc/elements/1.1/"
   xmlns:cc="http://creativecommons.org/ns#"
   xmlns:rdf="http://www.w3.org/1999/02/22-rdf-syntax-ns#"
   xmlns:svg="http://www.w3.org/2000/svg"
   xmlns="http://www.w3.org/2000/svg"
   xmlns:sodipodi="http://sodipodi.sourceforge.net/DTD/sodipodi-0.dtd"
   xmlns:inkscape="http://www.inkscape.org/namespaces/inkscape"
   inkscape:version="1.0 (4035a4fb49, 2020-05-01)"
   sodipodi:docname="logo.svg"
   id="svg14"
   preserveAspectRatio="xMidYMid meet"
   viewBox="0 0 451.5 59.249998"
   height="79"
   width="602"
   version="1.0">
  <metadata
     id="metadata20">
    <rdf:RDF>
      <cc:Work
         rdf:about="">
        <dc:format>image/svg+xml</dc:format>
        <dc:type
           rdf:resource="http://purl.org/dc/dcmitype/StillImage" />
        <dc:title></dc:title>
      </cc:Work>
    </rdf:RDF>
  </metadata>
  <defs
     id="defs18" />
  <sodipodi:namedview
     inkscape:guide-bbox="true"
     showguides="true"
     units="px"
     inkscape:bbox-paths="false"
     inkscape:snap-bbox="true"
     inkscape:current-layer="g12"
     inkscape:window-maximized="1"
     inkscape:window-y="-8"
     inkscape:window-x="-8"
     inkscape:cy="30.604338"
     inkscape:cx="289.8481"
     inkscape:zoom="1.7392241"
     showgrid="false"
     id="namedview16"
     inkscape:window-height="705"
     inkscape:window-width="1366"
     inkscape:pageshadow="2"
     inkscape:pageopacity="0"
     guidetolerance="10"
     gridtolerance="10"
     objecttolerance="10"
     borderopacity="1"
     bordercolor="#666666"
     pagecolor="#ffffff">
    <sodipodi:guide
       id="guide883"
       orientation="0,-1"
       position="225.10037,29.495353" />
    <sodipodi:guide
       id="guide885"
       orientation="1,0"
       position="225.10037,72.186801" />
  </sodipodi:namedview>
  <g
     id="g12"
     stroke="none"
     fill="#000000"
     transform="matrix(0.1,0,0,-0.1,0,116)">
    <path
       style="fill:#fed777;fill-opacity:1;stroke-width:0.522435"
       id="path2"
       d="M 398.81324,1143.7754 C 298.16432,1131.9951 176.38468,1090.2744 111.32434,1043.645 31.250061,986.70815 -11.011363,901.79371 6.7829207,834.05851 28.469704,752.57987 96.310418,687.78966 209.1929,641.16032 c 61.16785,-25.52341 115.10677,-39.2668 192.95677,-49.0835 138.46177,-17.17924 275.25533,1.47251 399.25927,54.48271 54.49499,23.56009 68.9528,32.3951 108.4339,67.24437 68.39674,60.86355 95.64426,121.72703 82.29862,183.08145 -28.91583,126.63545 -185.72787,223.33055 -401.4836,246.89005 -54.49499,6.3809 -136.23748,5.8902 -191.84462,0 z m 225.20891,-12.2708 C 915.40359,1087.3295 1066.0989,905.7204 938.20251,752.08907 880.92708,683.37213 764.70821,627.41694 629.58286,603.85688 c -46.70999,-8.34422 -213.53141,-8.34422 -261.35355,0 -130.1207,22.57836 -244.6714,76.07941 -303.614967,142.34217 -35.588567,39.75766 -48.378209,72.64356 -48.934281,123.69043 -0.556071,38.77597 1.112144,44.17514 20.574641,79.02442 48.934279,88.3504 175.718557,157.0672 334.754967,182.5907 61.72393,9.8167 188.5082,9.8167 253.01248,0 z" />
    <path
       style="fill:#550000;fill-opacity:1;stroke-width:0.522435"
       id="path4"
       d="M 738.57284,1005.8508 C 685.74607,901.30287 644.59678,822.27841 641.26036,818.84261 c -2.22429,-1.96329 -23.91107,34.84931 -48.3782,81.96946 l -43.92965,85.89608 -23.91107,0.49087 c -13.34571,0 -23.355,-1.96337 -22.24285,-4.4175 8.89714,-20.12424 135.68142,-259.65172 136.79356,-258.67007 0.55607,0.98167 33.36427,63.31773 72.28928,138.4155 47.82213,92.27697 74.51358,137.43382 80.63033,138.41545 8.89718,1.4725 9.45324,-9.32588 9.45324,-138.41545 V 722.14813 h 19.46245 19.46254 V 876.76116 1031.3743 H 796.4043 751.91856 Z" />
    <path
       style="fill:#550000;fill-opacity:1;stroke-width:0.522435"
       id="path6"
       d="m 226.43111,973.45565 c -35.58856,-15.21588 -67.8407,-42.70263 -86.19106,-74.11612 -14.45785,-25.5234 -13.90178,-29.94092 2.78036,-29.94092 11.12143,0 16.12607,4.41752 25.02321,21.59676 19.4625,36.32178 64.50429,64.79023 111.21428,70.18941 18.90642,2.45412 22.24284,4.41749 22.24284,14.23424 0,10.3075 -2.78036,11.78 -20.57463,11.78 -11.6775,0 -36.14464,-6.38087 -54.495,-13.74337 z" />
    <path
       style="fill:#fed777;fill-opacity:1;stroke-width:0.522435"
       id="path8"
       d="m 360.44432,861.05445 c -36.14465,-69.69864 -66.72857,-129.58048 -68.39678,-132.52548 -2.22429,-4.90836 13.3457,-6.38084 67.28463,-6.38084 h 70.065 v 17.17919 17.17926 h -36.14465 c -20.01856,0 -36.14463,1.96332 -36.14463,3.92665 0,9.8167 65.06035,129.08963 69.50892,128.10792 3.33643,-0.98163 24.46714,-38.28509 47.82214,-82.95109 l 41.70536,-80.98776 24.46713,-1.4725 c 17.79428,-1.47253 22.79893,0 20.57464,4.90832 -3.33642,8.34419 -132.90105,256.2159 -134.56927,258.17928 -0.55607,0.49075 -30.58393,-55.95524 -66.17249,-125.16295 z" />
    <path
       style="fill:#550000;fill-opacity:1;stroke-width:0.522435"
       id="path10"
       d="M 248.67397,831.60433 C 234.21611,797.7367 193.6229,764.35996 154.6979,753.56156 c -26.69142,-7.36251 -31.13999,-10.30751 -31.13999,-20.61506 0,-11.28923 1.66821,-11.78004 20.57463,-8.3442 54.49501,8.83502 114.55071,53.99185 131.78892,98.65783 9.45322,25.03253 7.78501,31.41345 -7.22892,31.41345 -7.22893,0 -13.34571,-7.36252 -20.01857,-23.06925 z" />
    <g
       style="fill:#ffffff;fill-opacity:1"
       transform="matrix(0.88237915,0,0,0.93750002,1037.4071,668.68412)"
       fill="#000000"
       stroke="none"
       id="g24">
      <path
         d="m 1575,349 c -125,-38 -141,-212 -25,-272 45,-22 106,-19 104,6 -1,9 -2,26 -3,37 -1,14 -8,20 -24,20 -38,0 -67,27 -67,64 0,39 23,63 65,68 27,3 30,6 28,37 -1,18 -3,35 -5,36 -11,10 -48,12 -73,4 z"
         id="path2-5"
         style="opacity:1;fill:#ffffff;fill-opacity:1" />
      <path
         d="m 1760,350 c -12,-7 -15,-35 -15,-147 V 65 h 95 95 l 3,41 c 3.6775,39.32253 0.7137,37.89365 -31.0445,34.65185 -17,-2 -38.9555,-3.69631 -53.9555,1.30369 -25,7 -21,13.04446 27,18.04446 l 55,5 v 40 40 l -45,3 c -69,5 -74,22 -7,22 56,0 57,0 57,29 0,57 -6,61 -89,61 -42,0 -83,-5 -91,-10 z"
         id="path4-8"
         sodipodi:nodetypes="cscccccccccccsssc"
         style="opacity:1;fill:#ffffff;fill-opacity:1" />
      <path
         d="m 3272,352 -43,-3 3,-142 3,-142 h 45 45 l 3,139 c 1,77 -1,142 -5,145 -4,3 -27,5 -51,3 z"
         id="path6-6"
         style="opacity:1;fill:#ffffff;fill-opacity:1" />
      <path
         d="M 86,329 C 55,305 51,254 77,210 c 18,-31 38,-40 96,-40 20,0 37,-4 37,-10 0,-6 -32,-10 -75,-10 H 60 V 105 60 h 74 c 41,0 86,4 99,9 39,15 67,51 67,85 0,74 -25,96 -105,96 -24,0 -47,5 -50,10 -4,6 22,10 69,10 h 76 v 40 40 h -89 c -74,0 -92,-3 -115,-21 z"
         id="path8-8"
         style="opacity:1;fill:#ffffff;fill-opacity:1" />
      <path
         d="M 527,343 C 497,291 390,79 390,71 c 0,-6 20,-11 45,-11 44,0 46,2 67,45 12,25 25,45 29,45 4,0 18,-19 31,-42 22,-40 26,-43 71,-46 26,-2 47,-1 47,3 0,8 -39,87 -95,190 -56,105 -52,99 -58,88 z"
         id="path10-9"
         style="opacity:1;fill:#ffffff;fill-opacity:1" />
      <path
         d="M 865,274 C 794,123 770,70 770,65 c 0,-3 20,-5 44,-5 42,0 46,2 70,45 15,25 30,45 34,45 4,0 18,-18 32,-40 14,-22 27,-40 31,-40 3,0 15,18 28,40 12,22 26,40 31,40 4,0 16,-17 25,-38 10,-20 23,-40 29,-44 16,-11 86,-10 86,1 0,6 -17,47 -39,93 -21,46 -48,104 -59,131 -12,26 -25,47 -29,47 -5,0 -22,-22 -38,-50 -16,-27 -32,-50 -36,-50 -4,0 -23,26 -42,57 l -35,56 z"
         id="path12"
         style="opacity:1;fill:#ffffff;fill-opacity:1" />
      <path
         d="M 2040,205 V 60 h 40 40 v 50 c 0,28 4,50 10,50 5,0 21,-22 35,-50 23,-46 28,-50 60,-50 19,0 35,2 35,5 0,2 -14,32 -31,66 l -31,61 26,27 c 36,38 35,83 -3,110 -23,17 -44,21 -105,21 h -76 z m 123,60 c 1,-5 -5.0467,-18.14967 -14.0467,-20.14967 C 2137.9533,242.85033 2130,255 2130,265 c 0,17 30,18 33,0 z"
         id="path14"
         sodipodi:nodetypes="ccccsssssccccsccccsc"
         style="opacity:1;fill:#ffffff;fill-opacity:1" />
      <path
         d="M 2474,312 C 2418,213 2350,81 2350,71 c 0,-16 76,-13 93,3 8,8 20,28 27,45 7,17 16,31 20,31 5,0 20,-20 34,-45 26,-44 28,-45 75,-45 h 49 l -30,58 c -91,174 -109,208 -116,219 -5,8 -14,-1 -28,-25 z"
         id="path16"
         style="opacity:1;fill:#ffffff;fill-opacity:1" />
      <path
         d="M 2847,318 C 2777,169 2730,67 2730,63 c 0,-2 21,-3 47,-1 45,3 49,6 71,46 13,23 27,42 30,42 4,0 18,-18 32,-40 14,-22 28,-40 32,-40 4,0 17,18 28,40 11,22 25,40 30,40 5,0 18,-20 29,-45 19,-44 21,-45 65,-45 25,0 46,4 46,9 0,10 -48,121 -96,219 l -32,67 -18,-34 c -11,-18 -28,-45 -40,-59 l -21,-25 -32,56 c -18,32 -34,57 -36,57 -1,0 -10,-15 -18,-32 z"
         id="path18"
         style="opacity:1;fill:#ffffff;fill-opacity:1" />
      <path
         d="m 3484,331 c -42,-26 -76,-97 -68,-142 15,-76 58,-117 134,-126 l 50,-6 v 42 c 0,36 -3,41 -24,41 -33,0 -76,37 -76,65 0,32 37,65 72,65 26,0 28,3 28,40 v 40 h -42 c -25,0 -56,-8 -74,-19 z"
         id="path20"
         style="opacity:1;fill:#ffffff;fill-opacity:1" />
      <path
         d="m 3716,329 c -20,-16 -26,-29 -26,-61 0,-59 42,-98 105,-98 25,0 45,-4 45,-10 0,-6 -32,-10 -75,-10 h -75 V 105 60 h 75 c 125,0 169,30 163,112 -4,52 -35,77 -109,88 l -54,8 78,1 77,1 v 40 40 h -89 c -74,0 -92,-3 -115,-21 z"
         id="path22"
         style="opacity:1;fill:#ffffff;fill-opacity:1" />
    </g>
  </g>
</svg>
